<?xml version="1.0" encoding="UTF-8" ?>
<!DOCTYPE svg PUBLIC "-//W3C//DTD SVG 1.1//EN" "http://www.w3.org/Graphics/SVG/1.1/DTD/svg11.dtd">
<svg width="512pt" height="512pt" viewBox="0 0 512 512" version="1.1" xmlns="http://www.w3.org/2000/svg">
<path fill="#000" opacity="1.00" d=" M 251.39 0.00 L 260.61 0.00 C 270.08 1.81 279.69 5.30 286.26 12.73 C 350.23 76.76 414.26 140.74 478.25 204.75 C 491.26 218.83 509.76 230.82 512.00 251.49 L 512.00 260.61 C 510.19 270.08 506.70 279.69 499.27 286.26 C 435.24 350.23 371.26 414.26 307.25 478.25 C 293.17 491.26 281.18 509.75 260.52 512.00 L 251.48 512.00 C 243.79 510.47 236.15 508.07 229.91 503.09 C 210.55 489.31 207.60 458.83 223.33 441.29 C 284.77 379.37 346.88 318.09 408.17 256.04 C 347.28 194.23 285.44 133.28 224.28 71.72 C 212.57 59.82 210.31 40.75 216.70 25.68 C 222.79 11.81 236.58 2.27 251.39 0.00 Z" />
<path fill="#000" opacity="1.00" d=" M 0.00 61.53 C 2.81 35.93 29.50 14.48 55.11 22.89 C 76.03 29.40 86.77 50.78 102.71 64.28 C 142.94 107.38 183.86 149.81 224.24 192.75 C 238.55 207.60 257.34 223.21 255.95 245.97 C 256.23 266.55 240.36 281.57 226.75 294.76 C 184.95 339.27 142.83 383.50 100.74 427.74 C 85.11 442.40 72.92 464.01 50.39 468.45 C 25.44 473.51 3.13 452.33 0.00 428.61 L 0.00 418.40 C 2.25 397.14 20.55 383.62 33.75 368.75 C 72.93 327.52 112.13 286.30 151.19 244.97 C 113.64 206.13 76.87 166.53 39.40 127.61 C 25.20 110.17 3.23 96.53 0.00 72.47 L 0.00 61.53 Z" />
</svg>
