<?xml version="1.0" encoding="UTF-8" ?>
<!DOCTYPE svg PUBLIC "-//W3C//DTD SVG 1.1//EN" "http://www.w3.org/Graphics/SVG/1.1/DTD/svg11.dtd">
<svg width="162pt" height="162pt" viewBox="0 0 162 162" version="1.1" xmlns="http://www.w3.org/2000/svg">
<path fill="#7bffe9" opacity="1.00" d=" M 76.16 16.76 C 79.54 16.01 84.31 15.50 86.22 19.16 C 86.92 22.68 86.90 26.38 86.28 29.91 C 83.73 35.20 75.08 34.74 73.55 29.02 C 73.49 24.96 71.95 19.29 76.16 16.76 Z" />
<path fill="#7bffe9" opacity="1.00" d=" M 77.11 43.65 C 81.40 41.62 86.95 45.05 86.58 49.90 C 86.63 71.30 86.63 92.70 86.58 114.10 C 87.14 119.60 79.67 123.16 75.75 119.34 C 73.81 117.85 73.29 115.41 73.38 113.09 C 73.41 92.37 73.41 71.64 73.38 50.91 C 73.08 47.96 74.50 45.10 77.11 43.65 Z" />
<path fill="#7bffe9" opacity="1.00" d=" M 16.33 49.17 C 20.74 46.89 27.80 49.47 27.48 55.08 C 27.54 73.06 27.46 91.05 27.52 109.03 C 28.05 115.24 19.08 117.50 15.03 113.95 C 13.20 112.56 13.54 110.09 13.44 108.06 C 13.55 90.07 13.43 72.07 13.49 54.08 C 13.29 52.00 14.42 50.02 16.33 49.17 Z" />
<path fill="#7bffe9" opacity="1.00" d=" M 136.29 49.10 C 139.60 47.77 144.48 48.12 146.23 51.71 C 146.64 53.77 146.54 55.87 146.57 57.95 C 146.43 75.28 146.59 92.61 146.51 109.93 C 146.93 116.07 137.89 117.26 134.39 113.56 C 132.19 111.70 132.51 108.65 132.45 106.06 C 132.60 89.07 132.43 72.07 132.52 55.08 C 132.34 52.52 134.02 50.16 136.29 49.10 Z" />
<path fill="#7bffe9" opacity="1.00" d=" M 98.40 53.38 C 101.99 52.43 105.50 55.21 105.37 58.93 C 105.63 72.96 105.31 86.99 105.51 101.02 C 105.41 104.07 105.87 108.02 102.89 109.92 C 98.25 113.56 91.96 108.07 91.72 103.04 C 91.25 92.04 91.75 81.01 91.53 70.01 C 91.66 65.91 90.96 61.56 92.67 57.69 C 93.83 55.58 95.83 53.45 98.40 53.38 Z" />
<path fill="#7bffe9" opacity="1.00" d=" M 58.27 53.80 C 61.71 52.36 65.77 54.49 67.37 57.67 C 68.69 60.60 68.44 63.88 68.49 67.01 C 68.35 78.36 68.53 89.72 68.44 101.08 C 68.57 105.05 66.47 109.31 62.54 110.65 C 58.49 112.66 54.00 108.25 54.56 104.09 C 54.52 89.37 54.54 74.64 54.55 59.92 C 54.22 57.24 56.00 54.98 58.27 53.80 Z" />
<path fill="#7bffe9" opacity="1.00" d=" M 35.36 81.00 C 35.50 75.59 34.40 69.72 37.55 64.90 C 40.89 65.97 45.59 64.14 47.42 68.06 C 48.01 77.01 47.76 86.05 47.57 95.01 C 46.85 99.44 41.45 99.04 38.09 98.43 C 37.07 97.46 35.69 96.46 35.57 94.95 C 35.07 90.32 35.46 85.65 35.36 81.00 Z" />
<path fill="#7bffe9" opacity="1.00" d=" M 115.07 65.55 C 118.40 65.07 123.23 64.51 124.63 68.47 C 126.28 74.48 125.10 80.84 125.47 86.99 C 125.33 90.90 126.12 96.30 121.94 98.44 C 118.70 98.88 114.28 99.53 112.58 95.93 C 111.88 88.98 112.50 81.97 112.25 74.99 C 112.41 71.70 111.42 67.33 115.07 65.55 Z" />
<path fill="#7bffe9" opacity="1.00" d=" M 78.15 130.51 C 81.34 129.61 84.62 131.36 86.28 134.09 C 86.90 137.62 86.92 141.32 86.23 144.85 C 84.69 147.97 80.95 147.93 77.97 147.63 C 75.60 147.61 73.45 145.43 73.46 143.06 C 73.00 138.46 72.53 132.06 78.15 130.51 Z" />
</svg>
